<mxfile host="app.diagrams.net" modified="2023-07-20T01:38:40.828Z" agent="Mozilla/5.0 (Macintosh; Intel Mac OS X 10_15_7) AppleWebKit/537.36 (KHTML, like Gecko) Chrome/114.0.0.0 Safari/537.36" version="21.6.3" etag="WvLG-adOT5fNHYRqN7vF" type="gitlab">
  <diagram name="Page-1" id="9cAWr6itqkjfnz9b-aFp">
    <mxGraphModel>
      <root>
        <mxCell id="0" />
        <mxCell id="1" parent="0" />
      </root>
    </mxGraphModel>
  </diagram>
</mxfile>
